<svg version="1.1" id="Layer_1" xmlns="http://www.w3.org/2000/svg" xmlns:xlink="http://www.w3.org/1999/xlink" x="0px" y="0px"
	 width="100%" viewBox="0 0 256 256" enable-background="new 0 0 256 256" xml:space="preserve">
<path fill="#00D46A" opacity="1.000000" stroke="none"
	d="
M172.000000,257.000000
	C114.666672,257.000000 57.833340,257.000000 1.000008,257.000000
	C1.000005,171.666672 1.000005,86.333351 1.000003,1.000019
	C86.333321,1.000013 171.666641,1.000013 257.000000,1.000006
	C257.000000,86.333313 257.000000,171.666626 257.000000,256.999969
	C228.833328,257.000000 200.666672,257.000000 172.000000,257.000000
M68.500000,55.037151
	C58.173134,55.038273 47.845695,54.973480 37.519604,55.063442
	C30.511944,55.124496 25.465015,58.967983 24.232691,64.901665
	C23.061148,70.542679 26.125399,75.940102 32.175297,78.997101
	C46.727345,86.350204 61.273647,93.714729 75.812988,101.092934
	C83.188431,104.835724 90.543770,108.618103 98.174278,112.518585
	C96.903290,114.288498 95.880104,115.780807 94.789413,117.222023
	C78.813927,138.331589 62.777664,159.395432 46.871067,180.556747
	C39.937912,189.780289 44.692314,201.911789 55.794670,202.446381
	C59.662678,202.632629 64.278038,200.604050 67.534172,198.205246
	C120.483658,159.197296 173.269547,119.967262 226.091141,80.785713
	C227.026978,80.091522 227.978806,79.413887 228.869614,78.664825
	C233.036957,75.160622 235.018875,70.710426 233.718796,65.349434
	C232.476868,60.228153 228.954681,56.981560 223.811646,55.873440
	C221.078049,55.284454 218.215149,55.073174 215.410263,55.070511
	C166.773544,55.024361 118.136765,55.037197 68.500000,55.037151
z"/>
<path fill="#FCFEFD" opacity="1.000000" stroke="none"
	d="
M69.000000,55.037151
	C118.136765,55.037197 166.773544,55.024361 215.410263,55.070511
	C218.215149,55.073174 221.078049,55.284454 223.811646,55.873440
	C228.954681,56.981560 232.476868,60.228153 233.718796,65.349434
	C235.018875,70.710426 233.036957,75.160622 228.869614,78.664825
	C227.978806,79.413887 227.026978,80.091522 226.091141,80.785713
	C173.269547,119.967262 120.483658,159.197296 67.534172,198.205246
	C64.278038,200.604050 59.662678,202.632629 55.794670,202.446381
	C44.692314,201.911789 39.937912,189.780289 46.871067,180.556747
	C62.777664,159.395432 78.813927,138.331589 94.789413,117.222023
	C95.880104,115.780807 96.903290,114.288498 98.174278,112.518585
	C90.543770,108.618103 83.188431,104.835724 75.812988,101.092934
	C61.273647,93.714729 46.727345,86.350204 32.175297,78.997101
	C26.125399,75.940102 23.061148,70.542679 24.232691,64.901665
	C25.465015,58.967983 30.511944,55.124496 37.519604,55.063442
	C47.845695,54.973480 58.173134,55.038273 69.000000,55.037151
M75.931099,172.068970
	C120.908417,138.722992 165.885727,105.377022 211.660858,71.439545
	C184.663528,71.439545 158.889633,71.439545 132.596695,71.439545
	C137.873123,80.373169 135.667526,88.208313 130.684402,95.731644
	C129.306839,97.811440 127.797150,99.806221 126.299728,101.803749
	C108.923233,124.983589 91.537460,148.156479 73.693344,171.713287
	C73.599930,172.082932 73.506516,172.452591 73.413101,172.822235
	C74.039101,172.647141 74.665100,172.472046 75.931099,172.068970
M58.024559,71.031700
	C56.641033,71.094162 55.257504,71.156616 53.873978,71.219070
	C53.828243,71.501274 53.782505,71.783478 53.736771,72.065681
	C71.695038,81.266975 89.653313,90.468277 107.931015,99.833237
	C111.185875,95.277573 114.347824,91.216980 117.102364,86.896645
	C120.011360,82.334023 119.307480,78.547401 114.496208,76.058235
	C110.599579,74.042274 106.121574,72.304756 101.815857,72.079491
	C87.533394,71.332283 73.212273,71.324158 58.024559,71.031700
z"/>
<path fill="#03D46B" opacity="1.000000" stroke="none"
	d="
M74.154137,171.331207
	C91.537460,148.156479 108.923233,124.983589 126.299728,101.803749
	C127.797150,99.806221 129.306839,97.811440 130.684402,95.731644
	C135.667526,88.208313 137.873123,80.373169 132.596695,71.439545
	C158.889633,71.439545 184.663528,71.439545 211.660858,71.439545
	C165.885727,105.377022 120.908417,138.722992 75.328186,171.939972
	C74.534897,171.651031 74.344513,171.491119 74.154137,171.331207
z"/>
<path fill="#06D56D" opacity="1.000000" stroke="none"
	d="
M58.465267,71.032120
	C73.212273,71.324158 87.533394,71.332283 101.815857,72.079491
	C106.121574,72.304756 110.599579,74.042274 114.496208,76.058235
	C119.307480,78.547401 120.011360,82.334023 117.102364,86.896645
	C114.347824,91.216980 111.185875,95.277573 107.931015,99.833237
	C89.653313,90.468277 71.695038,81.266975 53.736771,72.065681
	C53.782505,71.783478 53.828243,71.501274 53.873978,71.219070
	C55.257504,71.156616 56.641033,71.094162 58.465267,71.032120
z"/>
<path fill="#03D46B" opacity="1.000000" stroke="none"
	d="
M75.008194,172.053955
	C74.665100,172.472046 74.039101,172.647141 73.413101,172.822235
	C73.506516,172.452591 73.599930,172.082932 73.923737,171.522247
	C74.344513,171.491119 74.534897,171.651031 75.008194,172.053955
z"/>
</svg>
